<svg width="512" height="512" viewBox="0 0 512 512" fill="none" xmlns="http://www.w3.org/2000/svg">
<g clip-path="url(#clip0_15347_21)">
<path d="M448 90.6667C443.757 90.6667 439.687 88.981 436.686 85.9804C433.686 82.9798 432 78.9101 432 74.6667V16C432 11.7565 433.686 7.68687 436.686 4.68629C439.687 1.68571 443.757 0 448 0C452.243 0 456.313 1.68571 459.314 4.68629C462.314 7.68687 464 11.7565 464 16V74.6667C464 78.9101 462.314 82.9798 459.314 85.9804C456.313 88.981 452.243 90.6667 448 90.6667ZM64 90.6667C59.7565 90.6667 55.6869 88.981 52.6863 85.9804C49.6857 82.9798 48 78.9101 48 74.6667V16C48 11.7565 49.6857 7.68687 52.6863 4.68629C55.6869 1.68571 59.7565 0 64 0C68.2435 0 72.3131 1.68571 75.3137 4.68629C78.3143 7.68687 80 11.7565 80 16V74.6667C80 78.9101 78.3143 82.9798 75.3137 85.9804C72.3131 88.981 68.2435 90.6667 64 90.6667Z" fill="#607D8B"/>
<path d="M64 0C59.7565 0 55.6869 1.68571 52.6863 4.68629C49.6857 7.68687 48 11.7565 48 16V74.6667C48 83.4987 55.168 90.6667 64 90.6667V0ZM448 0C443.757 0 439.687 1.68571 436.686 4.68629C433.686 7.68687 432 11.7565 432 16V74.6667C432 83.4987 439.168 90.6667 448 90.6667V0Z" fill="#546D79"/>
<path d="M416.021 384L413.376 383.787C411.303 383.442 409.317 382.693 407.534 381.582C405.75 380.47 404.203 379.018 402.981 377.308C401.758 375.598 400.885 373.665 400.41 371.617C399.935 369.57 399.868 367.449 400.213 365.376L416.64 266.389C417.567 261.059 416.858 255.574 414.608 250.654C412.357 245.734 408.67 241.611 404.032 238.827L311.275 184.469C307.611 182.328 304.948 178.819 303.872 174.714C302.796 170.609 303.394 166.245 305.536 162.581C307.678 158.918 311.187 156.255 315.291 155.179C319.396 154.103 323.76 154.701 327.424 156.843L420.224 211.243C430.433 217.335 438.563 226.369 443.55 237.161C448.536 247.953 450.147 260 448.171 271.723L431.765 370.624C431.153 374.358 429.234 377.753 426.35 380.204C423.466 382.654 419.805 383.999 416.021 384ZM95.9786 384C92.1932 383.996 88.5318 382.649 85.6453 380.2C82.7588 377.751 80.8341 374.358 80.2133 370.624L63.7866 271.637C61.8306 259.938 63.447 247.921 68.4248 237.155C73.4027 226.389 81.5108 217.373 91.6906 211.285L185.387 156.224C187.198 155.159 189.201 154.462 191.282 154.172C193.362 153.881 195.48 154.003 197.513 154.531C199.547 155.059 201.457 155.983 203.133 157.248C204.81 158.514 206.221 160.098 207.285 161.909C208.35 163.721 209.047 165.724 209.338 167.804C209.628 169.885 209.506 172.003 208.978 174.036C208.45 176.07 207.527 177.979 206.261 179.656C204.995 181.333 203.411 182.743 201.6 183.808L107.925 238.848C98.56 244.395 93.4826 255.424 95.3386 266.304L111.787 365.376C112.478 369.562 111.48 373.852 109.012 377.303C106.545 380.755 102.809 383.086 98.624 383.787L95.9786 384Z" fill="#607D8B"/>
<path d="M448.725 256H416.384C417.131 259.349 417.237 262.869 416.64 266.389L400.213 365.376C399.522 369.562 400.52 373.852 402.988 377.303C405.455 380.755 409.191 383.086 413.376 383.787L416.021 384C419.807 383.996 423.468 382.649 426.355 380.2C429.241 377.751 431.166 374.358 431.787 370.624L448.192 271.723C449.088 266.453 449.237 261.184 448.725 256ZM95.616 256H63.2747C62.7627 261.141 62.912 266.411 63.808 271.637L80.2347 370.624C81.5147 378.453 88.2987 384 95.9787 384L98.624 383.787C100.697 383.442 102.683 382.693 104.466 381.582C106.25 380.47 107.797 379.018 109.019 377.308C110.242 375.599 111.115 373.665 111.59 371.617C112.065 369.57 112.132 367.449 111.787 365.376L95.36 266.304C94.7711 262.886 94.8581 259.385 95.616 256Z" fill="#546D79"/>
<path d="M416 85.3333H368.192C362.607 85.3254 357.123 83.8463 352.292 81.045C347.461 78.2436 343.453 74.2189 340.672 69.376C323.584 39.744 291.733 21.3333 256 21.3333C239.145 21.3516 222.59 25.7995 207.995 34.2315C193.4 42.6634 181.278 54.783 172.843 69.376C167.189 79.2106 156.629 85.3333 145.323 85.3333H97.4933C94.6644 85.3333 91.9512 86.4571 89.9508 88.4575C87.9505 90.4579 86.8267 93.171 86.8267 96V138.667C86.8267 141.496 87.9505 144.209 89.9508 146.209C91.9512 148.21 94.6644 149.333 97.4933 149.333H145.301C156.608 149.333 167.168 155.456 172.821 165.291C189.888 194.923 221.76 213.333 257.493 213.333C274.35 213.311 290.906 208.859 305.5 200.423C320.095 191.988 332.217 179.865 340.651 165.269C346.304 155.435 356.864 149.333 368.192 149.333H416C418.829 149.333 421.542 148.21 423.542 146.209C425.543 144.209 426.667 141.496 426.667 138.667V96C426.667 93.171 425.543 90.4579 423.542 88.4575C421.542 86.4571 418.829 85.3333 416 85.3333Z" fill="#CFD8DC"/>
<path d="M256 21.3333C239.145 21.3516 222.59 25.7995 207.995 34.2315C193.4 42.6634 181.278 54.783 172.843 69.376C167.189 79.2106 156.629 85.3333 145.323 85.3333H97.4933C94.6644 85.3333 91.9512 86.4571 89.9508 88.4575C87.9505 90.4579 86.8267 93.171 86.8267 96V138.667C86.8267 141.496 87.9505 144.209 89.9508 146.209C91.9512 148.21 94.6644 149.333 97.4933 149.333H145.301C156.608 149.333 167.168 155.456 172.821 165.291C189.653 194.496 220.864 212.821 256 213.312V21.3333Z" fill="#B4BCC0"/>
<path d="M70.8054 58.6667H60.1388C39.5521 58.6667 22.8054 75.4134 22.8054 96V138.667C22.8054 159.253 39.5521 176 60.1388 176H70.8054C91.3921 176 108.139 159.253 108.139 138.667V96C108.139 75.4134 91.3921 58.6667 70.8054 58.6667ZM454.805 58.6667H444.139C423.552 58.6667 406.805 75.4134 406.805 96V138.667C406.805 159.253 423.552 176 444.139 176H454.805C475.392 176 492.139 159.253 492.139 138.667V96C492.139 75.4134 475.392 58.6667 454.805 58.6667Z" fill="#607D8B"/>
<path d="M108.139 117.333H22.8054V138.667C22.8054 159.253 39.5521 176 60.1388 176H70.8054C91.3921 176 108.139 159.253 108.139 138.667V117.333ZM492.139 117.333H406.805V138.667C406.805 159.253 423.552 176 444.139 176H454.805C475.392 176 492.139 159.253 492.139 138.667V117.333Z" fill="#546D79"/>
<path d="M112 32H16C11.7565 32 7.68687 30.3143 4.68629 27.3137C1.68571 24.3131 0 20.2435 0 16C0 11.7565 1.68571 7.68687 4.68629 4.68629C7.68687 1.68571 11.7565 0 16 0L112 0C116.243 0 120.313 1.68571 123.314 4.68629C126.314 7.68687 128 11.7565 128 16C128 20.2435 126.314 24.3131 123.314 27.3137C120.313 30.3143 116.243 32 112 32ZM496 32H400C395.757 32 391.687 30.3143 388.686 27.3137C385.686 24.3131 384 20.2435 384 16C384 11.7565 385.686 7.68687 388.686 4.68629C391.687 1.68571 395.757 0 400 0L496 0C500.243 0 504.313 1.68571 507.314 4.68629C510.314 7.68687 512 11.7565 512 16C512 20.2435 510.314 24.3131 507.314 27.3137C504.313 30.3143 500.243 32 496 32Z" fill="#607D8B"/>
<path d="M128 16H0C0 24.832 7.168 32 16 32H112C116.243 32 120.313 30.3143 123.314 27.3137C126.314 24.3131 128 20.2435 128 16ZM511.915 16H384C384 24.832 391.168 32 400 32H496C499.959 31.9998 503.777 30.5319 506.717 27.88C509.656 25.2282 511.508 21.5807 511.915 17.6427V16Z" fill="#546D79"/>
<path d="M256.085 512V380.544L384 318.272V442.816L256.085 512Z" fill="#FFCC80"/>
<path d="M255.915 512V380.544L128 318.272V442.816L255.915 512Z" fill="#FFB74D"/>
<path d="M128 318.208L255.872 380.544L305.664 356.352L326.4 346.24L384 318.208L256.128 256L201.6 282.496L179.84 292.992L128 318.208Z" fill="#FFA726"/>
<path d="M182.635 291.797L309.141 354.816V418.475L329.195 408.277V345.045L204.395 281.28L182.635 291.797Z" fill="#795548"/>
<path d="M128 318.272V442.816L255.915 512V380.544L255.893 380.523L255.872 380.544L224.533 365.269L128 318.272Z" fill="#DE9F43"/>
<path d="M256 256.064L201.6 282.496L179.84 292.992L128 318.208L224.533 365.269L255.872 380.544L255.893 380.523L256 380.48V328.341L182.635 291.797L204.395 281.28L256 307.648V256.064Z" fill="#DE9121"/>
<path d="M204.395 281.28L182.635 291.797L256 328.341V307.648L204.395 281.28Z" fill="#694A3F"/>
</g>
<defs>
<clipPath id="clip0_15347_21">
<rect width="512" height="512" fill="white"/>
</clipPath>
</defs>
</svg>
